HIERARCHY
ROOT SpineBase
{
  OFFSET 0.000000 0.000000 0.000000
  CHANNELS 6 Xposition Yposition Zposition Zrotation Xrotation Yrotation
  JOINT SpineMid
  {
    OFFSET 0.000000 32.757388 0.000000
    CHANNELS 3 Zrotation Xrotation Yrotation
    JOINT SpineShoulder
    {
      OFFSET -0.360572 24.278838 -1.836260
      CHANNELS 3 Zrotation Xrotation Yrotation
      JOINT Neck
      {
        OFFSET -0.055936 7.942340 -0.852838
        CHANNELS 3 Zrotation Xrotation Yrotation
        JOINT Head
        {
          OFFSET 5.785534 9.564299 5.867176
          CHANNELS 3 Zrotation Xrotation Yrotation
          End Site
          {
            OFFSET 0 0 0
          }
        }
      }
      JOINT ShoulderLeft
      {
        OFFSET -2.405228 -6.588381 -14.183771
        CHANNELS 3 Zrotation Xrotation Yrotation
        JOINT ElbowLeft
        {
          OFFSET 1.295319 -25.622886 -7.339031
          CHANNELS 3 Zrotation Xrotation Yrotation
          JOINT WristLeft
          {
            OFFSET 4.755730 -27.035536 0.285651
            CHANNELS 3 Zrotation Xrotation Yrotation
            JOINT HandLeft
            {
              OFFSET -1.005644 -6.396169 2.521186
              CHANNELS 3 Zrotation Xrotation Yrotation
              JOINT HandTipLeft
              {
                OFFSET 1.777994 -7.565877 1.746244
                CHANNELS 3 Zrotation Xrotation Yrotation
                End Site
                {
                  OFFSET 0 0 0
                }
              }
              JOINT ThumbLeft
              {
                OFFSET 4.411536 2.617645 4.713546
                CHANNELS 3 Zrotation Xrotation Yrotation
                End Site
                {
                  OFFSET 0 0 0
                }
              }
            }
          }
        }
      }
      JOINT ShoulderRight
      {
        OFFSET 8.133068 -6.038394 12.023027
        CHANNELS 3 Zrotation Xrotation Yrotation
        JOINT ElbowRight
        {
          OFFSET -7.990100 -13.933645 -27.486554
          CHANNELS 3 Zrotation Xrotation Yrotation
          JOINT WristRight
          {
            OFFSET 1.976820 -12.093402 26.252622
            CHANNELS 3 Zrotation Xrotation Yrotation
            JOINT HandRight
            {
              OFFSET 2.446948 -3.798691 1.748194
              CHANNELS 3 Zrotation Xrotation Yrotation
              JOINT HandTipRight
              {
                OFFSET 0.035825 -0.336567 -0.895225
                CHANNELS 3 Zrotation Xrotation Yrotation
                End Site
                {
                  OFFSET 0 0 0
                }
              }
              JOINT ThumbRight
              {
                OFFSET -0.489157 -0.330831 -2.062502
                CHANNELS 3 Zrotation Xrotation Yrotation
                End Site
                {
                  OFFSET 0 0 0
                }
              }
            }
          }
        }
      }
    }
  }
  JOINT HipLeft
  {
    OFFSET -2.124900 0.633586 -7.435405
    CHANNELS 3 Zrotation Xrotation Yrotation
    JOINT KneeLeft
    {
      OFFSET -2.553971 -36.814278 -4.162195
      CHANNELS 3 Zrotation Xrotation Yrotation
      JOINT AnkleLeft
      {
        OFFSET -8.529212 -36.168050 -1.487247
        CHANNELS 3 Zrotation Xrotation Yrotation
        JOINT FootLeft
        {
          OFFSET 10.268945 -3.910506 -7.339345
          CHANNELS 3 Zrotation Xrotation Yrotation
          End Site
          {
            OFFSET 0 0 0
          }
        }
      }
    }
  }
  JOINT HipRight
  {
    OFFSET 2.721126 0.915967 -0.231314
    CHANNELS 3 Zrotation Xrotation Yrotation
    JOINT KneeRight
    {
      OFFSET 0.267520 -38.063564 -7.428049
      CHANNELS 3 Zrotation Xrotation Yrotation
      JOINT AnkleRight
      {
        OFFSET -16.597344 -31.496768 -1.745417
        CHANNELS 3 Zrotation Xrotation Yrotation
        JOINT FootRight
        {
          OFFSET 10.270856 -3.959112 -7.359793
          CHANNELS 3 Zrotation Xrotation Yrotation
          End Site
          {
            OFFSET 0 0 0
          }
        }
      }
    }
  }
}
MOTION
Frames: 5
Frame Time: 0.033333
-35.813038 83.844280 330.165842 3.343252 -0.899284 -46.019644 -1.778203 1.039280 46.239967 0.224217 -0.985771 0.128208 15.922310 -10.145568 -5.133374 0.000000 0.000000 0.000000 8.030196 0.159765 -3.498501 2.555800 6.807084 3.730771 11.454577 8.827688 5.537843 -27.554714 -17.948750 -12.281963 0.000000 0.000000 0.000000 0.000000 0.000000 0.000000 0.997562 -0.403427 -8.407056 -1.428067 -7.577279 10.193168 22.291088 3.403325 3.820973 -29.962206 -33.209834 -14.368766 0.000000 0.000000 0.000000 0.000000 0.000000 0.000000 5.112888 10.933193 43.448967 -13.277926 -6.141767 2.130991 2.015253 3.068637 -5.245342 0.000000 0.000000 0.000000 -5.412890 -4.244658 46.548428 3.633040 -36.492676 19.422235 -8.599140 32.300290 13.225800 0.000000 0.000000 0.000000
-37.822395 83.241992 328.838127 4.673383 -0.201243 -34.443659 -1.439087 1.307558 34.736935 0.242175 -1.004302 0.183324 16.824630 -12.258847 -5.242338 0.000000 0.000000 0.000000 11.607326 1.088291 -5.055482 2.416509 6.869276 5.133279 13.556908 10.468832 7.242489 -34.172323 -20.555941 -15.583430 0.000000 0.000000 0.000000 0.000000 0.000000 0.000000 1.207072 -0.993197 -11.836220 4.335367 -18.748308 20.034565 16.457636 -17.883741 -15.852092 -11.570205 11.822335 -63.281780 0.000000 0.000000 0.000000 0.000000 0.000000 0.000000 8.313560 8.919846 31.594275 -14.329305 -6.091836 2.440780 1.204950 3.499656 -5.197639 0.000000 0.000000 0.000000 -7.787414 -4.324387 34.961260 0.993201 -44.579194 22.311236 1.783582 39.244485 3.717558 0.000000 0.000000 0.000000
-40.101183 82.844688 327.408645 6.200349 0.202959 -18.841785 -1.162163 1.613788 19.200133 0.107250 -0.918730 0.216067 16.915156 -13.692021 -5.232478 0.000000 0.000000 0.000000 15.808435 2.137917 -6.816056 1.861884 7.026776 6.669048 12.764723 10.895645 8.165021 -34.844998 -20.121010 -15.443937 0.000000 0.000000 0.000000 0.000000 0.000000 0.000000 2.625919 -2.795139 -17.099846 11.701801 -21.283525 35.935331 1.769963 -23.039092 -31.451230 -7.854119 18.348237 -87.192439 0.000000 0.000000 0.000000 0.000000 0.000000 0.000000 11.211330 5.523087 15.949557 -18.163088 -6.087638 2.706062 -2.531989 1.289451 -2.497277 0.000000 0.000000 0.000000 -12.167263 -2.322757 19.664120 6.139482 -49.426384 25.705979 -0.423849 43.515238 9.798004 0.000000 0.000000 0.000000
-43.085957 82.246462 325.861693 7.055819 0.551343 -7.063533 -1.208756 1.901774 7.419267 0.135884 -0.922197 0.235753 17.134046 -14.807430 -4.942825 0.000000 0.000000 0.000000 21.076369 3.604315 -8.720947 1.106892 6.721088 8.340422 12.796921 11.074749 9.701903 -34.583928 -16.892012 -14.666828 0.000000 0.000000 0.000000 0.000000 0.000000 0.000000 4.688991 -4.540395 -22.264826 19.047068 -15.061677 55.549343 -10.961480 -20.250751 -43.531326 -15.411240 9.839721 -81.577503 0.000000 0.000000 0.000000 0.000000 0.000000 0.000000 13.604775 2.363028 4.272093 -23.803427 -6.559781 3.031493 -4.265408 -0.539983 0.223226 0.000000 0.000000 0.000000 -14.055281 -0.127058 8.210088 14.128941 -50.137277 29.742717 -6.856629 46.017162 15.212214 0.000000 0.000000 0.000000
-46.220400 81.706405 324.387310 7.767589 0.687016 -1.711857 -1.051693 2.026394 2.092538 0.125100 -0.909543 0.260118 18.145574 -15.410516 -5.637835 0.000000 0.000000 0.000000 26.254952 4.804936 -10.829509 0.450350 6.673724 9.957474 12.611990 10.088058 12.114205 -31.060682 -9.393694 -12.911836 0.000000 0.000000 0.000000 0.000000 0.000000 0.000000 6.394398 -5.750692 -27.385799 19.738705 1.257739 77.409769 -18.692109 -22.327678 -54.601154 -28.165115 0.486629 -77.664296 0.000000 0.000000 0.000000 0.000000 0.000000 0.000000 14.962971 0.391211 -0.976217 -32.203848 -6.674200 3.138280 -1.627308 -2.737823 0.618070 0.000000 0.000000 0.000000 -13.148947 0.916942 2.659588 19.763884 -45.083521 30.229197 -18.190231 42.557424 19.933816 0.000000 0.000000 0.000000
